<?xml version="1.0" encoding="UTF-8" standalone="no"?>
<svg
   xmlns:dc="http://purl.org/dc/elements/1.1/"
   xmlns:cc="http://creativecommons.org/ns#"
   xmlns:rdf="http://www.w3.org/1999/02/22-rdf-syntax-ns#"
   xmlns:svg="http://www.w3.org/2000/svg"
   xmlns="http://www.w3.org/2000/svg"
   xmlns:sodipodi="http://sodipodi.sourceforge.net/DTD/sodipodi-0.dtd"
   xmlns:inkscape="http://www.inkscape.org/namespaces/inkscape"
   inkscape:version="1.0 (4035a4fb49, 2020-05-01)"
   sodipodi:docname="CF_B2.svg"
   id="svg8"
   version="1.1"
   viewBox="0 0 638.1749 933.44997"
   height="3528"
   width="2412">
  <defs
     id="defs2" />
  <sodipodi:namedview
     inkscape:pagecheckerboard="false"
     inkscape:window-maximized="1"
     inkscape:window-y="-8"
     inkscape:window-x="-8"
     inkscape:window-height="1017"
     inkscape:window-width="1920"
     inkscape:showpageshadow="false"
     showborder="true"
     units="px"
     showgrid="true"
     inkscape:document-rotation="0"
     inkscape:current-layer="layer3"
     inkscape:document-units="px"
     inkscape:cy="894.95487"
     inkscape:cx="-509.85896"
     inkscape:zoom="0.12992021"
     inkscape:pageshadow="2"
     inkscape:pageopacity="0.0"
     borderopacity="1.0"
     bordercolor="#666666"
     pagecolor="#ffffff"
     id="base">
    <inkscape:grid
       empspacing="36"
       id="grid10"
       type="xygrid" />
  </sodipodi:namedview>
  <metadata
     id="metadata5">
    <rdf:RDF>
      <cc:Work
         rdf:about="">
        <dc:format>image/svg+xml</dc:format>
        <dc:type
           rdf:resource="http://purl.org/dc/dcmitype/StillImage" />
        <dc:title />
      </cc:Work>
    </rdf:RDF>
  </metadata>
  <g
     style="display:inline"
     id="layer1"
     inkscape:groupmode="layer"
     inkscape:label="Layer 1" />
  <g
     style="display:inline"
     inkscape:label="Layer 3"
     id="layer3"
     inkscape:groupmode="layer">
    <rect
       y="295.31381"
       x="-933.42993"
       height="57.149971"
       width="9.5250397"
       id="rect314-5-5-4-1-1-05-1-3"
       style="display:inline;fill:#0000ff;fill-opacity:1;stroke-width:0.324046"
       transform="matrix(4.1692954e-5,-1,1,5.6750018e-5,0,0)" />
    <rect
       y="295.2785"
       x="-922.52069"
       height="9.5258684"
       width="133.35324"
       id="rect314-5-5-4-1-1-05-1-3-1-2"
       style="display:inline;fill:#0000ff;fill-opacity:1;stroke-width:0.495017"
       transform="matrix(4.963746e-7,-1,0.99998864,0.00476667,0,0)" />
    <rect
       transform="matrix(4.9638696e-7,-1,0.99998864,0.00476655,0,0)"
       style="display:inline;fill:#0000ff;fill-opacity:1;stroke-width:0.495012"
       id="rect314-5-5-4-1-1-05-1-3-1-2-9"
       width="133.34991"
       height="9.5258684"
       x="-922.29041"
       y="342.90424" />
    <rect
       style="display:inline;fill:#ff0000;fill-opacity:1;stroke-width:0.305512"
       id="rect332-8-2-4-6-9-4-0"
       width="9.5249138"
       height="38.099819"
       x="-923.91614"
       y="304.815"
       transform="matrix(1.6252415e-5,-1,1,2.5394681e-5,0,0)" />
    <rect
       y="352.53052"
       x="-800.091"
       height="180.97366"
       width="9.5250397"
       id="rect314-5-5-4-1-1-05-1-3-1-7"
       style="display:inline;fill:#0000ff;fill-opacity:1;stroke-width:0.576643"
       transform="matrix(1.3202677e-4,-0.99999999,1,1.7921184e-5,0,0)" />
    <rect
       transform="matrix(1.8066947e-4,-0.99999998,1,1.3096158e-5,0,0)"
       style="display:inline;fill:#0000ff;fill-opacity:1;stroke-width:0.674555"
       id="rect314-5-5-4-1-1-05-1-3-1-7-7"
       width="9.5250397"
       height="247.64986"
       x="-800.09998"
       y="47.767841" />
    <rect
       y="533.42261"
       x="-795.11115"
       height="9.5261612"
       width="257.08737"
       id="rect314-5-5-4-1-1-05-1-3-1-2-9-5"
       style="display:inline;fill:#0000ff;fill-opacity:1;stroke-width:0.687332"
       transform="matrix(2.5747339e-7,-1,0.99995778,0.00918922,0,0)" />
    <rect
       y="38.101482"
       x="-799.75665"
       height="9.5260773"
       width="228.64532"
       id="rect314-5-5-4-1-1-05-1-3-1-2-9-8"
       style="display:inline;fill:#0000ff;fill-opacity:1;stroke-width:0.648195"
       transform="matrix(2.895015e-7,-1,0.9999666,0.00817267,0,0)" />
    <rect
       transform="matrix(-1,-2.3270958e-7,6.4141122e-6,-1,0,0)"
       style="display:inline;fill:#000000;fill-opacity:1;stroke-width:0.857345"
       id="rect314-5-5-4-1-1-33-9-0-0"
       width="200.02559"
       height="19.049948"
       x="-247.65358"
       y="-581.02539" />
    <rect
       y="-609.59991"
       x="-485.77664"
       height="19.049948"
       width="38.100914"
       id="rect314-5-5-4-1-1-33-9-0-0-5"
       style="display:inline;fill:#000000;fill-opacity:1;stroke-width:0.374182"
       transform="rotate(-179.99993)" />
    <rect
       transform="matrix(-1,-2.1247469e-7,7.0249562e-6,-1,0,0)"
       style="display:inline;fill:#000000;fill-opacity:1;stroke-width:0.897244"
       id="rect314-5-5-4-1-1-33-9-0-0-5-5"
       width="219.07491"
       height="19.049948"
       x="-304.80505"
       y="-752.47559" />
    <rect
       transform="matrix(-1,-2.6877748e-5,5.5533869e-8,-1,0,0)"
       style="display:inline;fill:#000000;fill-opacity:1;stroke-width:0.438761"
       id="rect314-5-5-4-1-1-33-9-0-0-5-4"
       width="9.5250912"
       height="104.77459"
       x="-447.67514"
       y="-695.31372" />
    <rect
       y="-752.45508"
       x="-495.30008"
       height="161.92467"
       width="9.5250912"
       id="rect314-5-5-4-1-1-33-9-0-0-5-4-3"
       style="display:inline;fill:#000000;fill-opacity:1;stroke-width:0.545452"
       transform="matrix(-1,-4.1538416e-5,3.5933612e-8,-1,0,0)" />
    <rect
       y="-714.35889"
       x="-400.05011"
       height="161.92451"
       width="9.5250912"
       id="rect314-5-5-4-1-1-33-9-0-0-5-4-7"
       style="display:inline;fill:#000000;fill-opacity:1;stroke-width:0.545452"
       transform="matrix(-1,-4.1538379e-5,3.5933644e-8,-1,0,0)" />
    <rect
       transform="matrix(-1,-6.1086026e-5,2.4434809e-8,-1,0,0)"
       style="display:inline;fill:#000000;fill-opacity:1;stroke-width:0.661461"
       id="rect314-5-5-4-1-1-33-9-0-0-5-4-7-7"
       width="9.5250912"
       height="238.12494"
       x="-352.42511"
       y="-714.35455" />
    <rect
       y="714.37549"
       x="390.52487"
       height="19.050047"
       width="9.5250082"
       id="rect1250-2-8-9-1"
       style="display:inline;fill:#b3b3b3;fill-opacity:1;stroke-width:0.0440976" />
    <rect
       y="-552.45038"
       x="-533.40234"
       height="19.049948"
       width="142.87491"
       id="rect314-5-5-4-1-1-33-9-0-0-8"
       style="display:inline;fill:#000000;fill-opacity:1;stroke-width:0.724588"
       transform="matrix(-1,-3.257946e-7,4.5814924e-6,-1,0,0)" />
    <rect
       style="display:inline;fill:#b3b3b3;fill-opacity:1;stroke-width:0.0881951"
       id="rect1250-2-8-9-1-7"
       width="38.099934"
       height="19.050047"
       x="352.42487"
       y="533.40051" />
    <rect
       y="-733.42316"
       x="-95.250107"
       height="114.30016"
       width="9.5250912"
       id="rect314-5-5-4-1-1-33-9-0-0-5-4-7-7-3"
       style="display:inline;fill:#000000;fill-opacity:1;stroke-width:0.458274"
       transform="matrix(-1,-2.9321339e-5,5.0905772e-8,-1,0,0)" />
    <rect
       transform="matrix(-1,-4.4427658e-7,3.359676e-6,-1,0,0)"
       style="display:inline;fill:#000000;fill-opacity:1;stroke-width:0.620503"
       id="rect314-5-5-4-1-1-33-9-0-0-5-9"
       width="104.77493"
       height="19.049948"
       x="-200.02708"
       y="-638.17542" />
    <rect
       transform="matrix(-1,-1.4660652e-5,1.0181166e-7,-1,0,0)"
       style="display:inline;fill:#000000;fill-opacity:1;stroke-width:0.324046"
       id="rect314-5-5-4-1-1-33-9-0-0-5-4-7-7-3-4"
       width="9.5250912"
       height="57.150021"
       x="-209.55017"
       y="-676.27258" />
    <rect
       y="-695.32538"
       x="-209.55182"
       height="19.049948"
       width="76.200241"
       id="rect314-5-5-4-1-1-33-9-0-0-5-5-5"
       style="display:inline;fill:#000000;fill-opacity:1;stroke-width:0.529167"
       transform="matrix(-1,-6.1086253e-7,2.4434718e-6,-1,0,0)" />
    <rect
       y="-714.3606"
       x="-304.80011"
       height="200.02528"
       width="9.5250912"
       id="rect314-5-5-4-1-1-33-9-0-0-5-4-7-7-5"
       style="display:inline;fill:#000000;fill-opacity:1;stroke-width:0.60624"
       transform="matrix(-1,-5.1312339e-5,2.9089014e-8,-1,0,0)" />
    <rect
       transform="matrix(-1,-6.5972909e-5,2.2624823e-8,-1,0,0)"
       style="display:inline;fill:#000000;fill-opacity:1;stroke-width:0.687409"
       id="rect314-5-5-4-1-1-33-9-0-0-5-4-7-7-5-3"
       width="9.5250912"
       height="257.17496"
       x="-257.17511"
       y="-714.3584" />
    <rect
       style="display:inline;fill:#b3b3b3;fill-opacity:1;stroke-width:0.0440976"
       id="rect1250-2-8-9-1-6"
       width="9.5250082"
       height="19.050047"
       x="247.64987"
       y="714.37549" />
    <rect
       y="733.42548"
       x="304.7999"
       height="19.050047"
       width="38.099934"
       id="rect1250-2-8-9-1-7-2"
       style="display:inline;fill:#b3b3b3;fill-opacity:1;stroke-width:0.0881951" />
    <rect
       y="-752.47528"
       x="-485.77826"
       height="19.049948"
       width="142.87498"
       id="rect314-5-5-4-1-1-33-9-0-0-5-5-0"
       style="display:inline;fill:#000000;fill-opacity:1;stroke-width:0.72459"
       transform="matrix(-1,-3.2579439e-7,4.5814953e-6,-1,0,0)" />
    <rect
       y="533.40051"
       x="257.1749"
       height="19.050047"
       width="38.099934"
       id="rect1250-2-8-9-1-7-5"
       style="display:inline;fill:#b3b3b3;fill-opacity:1;stroke-width:0.0881951" />
    <rect
       y="533.40051"
       x="304.7999"
       height="19.050047"
       width="38.099934"
       id="rect1250-2-8-9-1-7-59"
       style="display:inline;fill:#b3b3b3;fill-opacity:1;stroke-width:0.0881951" />
    <rect
       transform="matrix(-1,-2.3271027e-7,6.4140937e-6,-1,0,0)"
       style="display:inline;fill:#000000;fill-opacity:1;stroke-width:0.857345"
       id="rect314-5-5-4-1-1-33-9-0-0-8-3"
       width="200.02502"
       height="19.049948"
       x="-590.55316"
       y="-495.30023" />
    <rect
       transform="matrix(6.9513838e-5,-1,1,3.4037534e-5,0,0)"
       style="display:inline;fill:#0000ff;fill-opacity:1;stroke-width:0.418272"
       id="rect314-5-5-4-1-1-05-1-3-1-2-9-5-3"
       width="9.5216589"
       height="95.251175"
       x="-542.90411"
       y="533.4364" />
    <rect
       transform="matrix(-1,-7.5746556e-5,1.9705521e-8,-1,0,0)"
       style="display:inline;fill:#000000;fill-opacity:1;stroke-width:0.736568"
       id="rect314-5-5-4-1-1-33-9-0-0-5-4-3-0"
       width="9.5250912"
       height="295.27448"
       x="-638.17505"
       y="-542.87744" />
    <rect
       y="-476.22446"
       x="-590.54993"
       height="171.44951"
       width="9.5250912"
       id="rect314-5-5-4-1-1-33-9-0-0-5-4-3-0-8"
       style="display:inline;fill:#000000;fill-opacity:1;stroke-width:0.561266"
       transform="matrix(-1,-4.3981819e-5,3.3937326e-8,-1,0,0)" />
    <rect
       y="-419.10034"
       x="-295.27814"
       height="19.049948"
       width="247.64978"
       id="rect314-5-5-4-1-1-33-9-0-0-8-3-2"
       style="display:inline;fill:#000000;fill-opacity:1;stroke-width:0.953966"
       transform="matrix(-1,-1.8795847e-7,7.9412517e-6,-1,0,0)" />
    <rect
       y="9.6060333"
       x="-466.71878"
       height="238.12326"
       width="9.5216589"
       id="rect314-5-5-4-1-1-05-1-3-1-2-9-5-3-5"
       style="display:inline;fill:#0000ff;fill-opacity:1;stroke-width:0.661339"
       transform="matrix(1.7378118e-4,-0.99999998,1,1.3615281e-5,0,0)" />
    <rect
       y="-466.72491"
       x="-9.5249872"
       height="247.64928"
       width="9.5250912"
       id="rect314-5-5-4-1-1-33-9-0-0-5-4-3-0-9"
       style="display:inline;fill:#000000;fill-opacity:1;stroke-width:0.674555"
       transform="matrix(-1,-6.3529294e-5,2.3495072e-8,-1,0,0)" />
    <rect
       y="-400.04898"
       x="-57.150196"
       height="85.72467"
       width="9.5250912"
       id="rect314-5-5-4-1-1-33-9-0-0-5-4-7-7-3-4-3"
       style="display:inline;fill:#000000;fill-opacity:1;stroke-width:0.396872"
       transform="matrix(-1,-2.1990887e-5,6.7874721e-8,-1,0,0)" />
    <rect
       transform="matrix(-1,-2.3271035e-7,6.4140915e-6,-1,0,0)"
       style="display:inline;fill:#000000;fill-opacity:1;stroke-width:0.857345"
       id="rect314-5-5-4-1-1-33-9-0-0-8-3-2-2"
       width="200.02496"
       height="19.049948"
       x="-247.65187"
       y="-295.27554" />
    <rect
       transform="matrix(-1,-3.6651525e-5,4.072478e-8,-1,0,0)"
       style="display:inline;fill:#000000;fill-opacity:1;stroke-width:0.512363"
       id="rect314-5-5-4-1-1-33-9-0-0-5-4-3-0-8-0"
       width="9.5250912"
       height="142.87462"
       x="-257.17511"
       y="-361.94098" />
    <rect
       y="-238.12541"
       x="-209.55153"
       height="19.049948"
       width="200.02502"
       id="rect314-5-5-4-1-1-33-9-0-0-8-3-2-2-8"
       style="display:inline;fill:#000000;fill-opacity:1;stroke-width:0.857345"
       transform="matrix(-1,-2.3271025e-7,6.4140944e-6,-1,0,0)" />
    <rect
       style="display:inline;fill:#b3b3b3;fill-opacity:1;stroke-width:0.0881951"
       id="rect1250-2-8-9-1-7-5-0"
       width="38.099934"
       height="19.050047"
       x="209.54993"
       y="219.07553" />
    <rect
       y="-361.95047"
       x="-247.6517"
       height="19.049948"
       width="152.39995"
       id="rect314-5-5-4-1-1-33-9-0-0-8-3-2-2-1"
       style="display:inline;fill:#000000;fill-opacity:1;stroke-width:0.748353"
       transform="matrix(-1,-3.0543238e-7,4.8869266e-6,-1,0,0)" />
    <rect
       transform="matrix(-1,-1.2217226e-5,1.2217383e-7,-1,0,0)"
       style="display:inline;fill:#000000;fill-opacity:1;stroke-width:0.295812"
       id="rect314-5-5-4-1-1-33-9-0-0-5-4-7-7-3-4-3-4"
       width="9.5250912"
       height="47.62508"
       x="-104.77512"
       y="-342.89941" />
    <rect
       y="219.07553"
       x="257.1749"
       height="19.050047"
       width="38.099934"
       id="rect1250-2-8-9-1-7-5-0-2"
       style="display:inline;fill:#b3b3b3;fill-opacity:1;stroke-width:0.0881951" />
    <rect
       y="219.07553"
       x="304.7999"
       height="19.050047"
       width="38.099934"
       id="rect1250-2-8-9-1-7-5-0-7"
       style="display:inline;fill:#b3b3b3;fill-opacity:1;stroke-width:0.0881951" />
    <rect
       y="295.27551"
       x="47.624886"
       height="19.050047"
       width="9.5250082"
       id="rect1250-2-8-9-1-6-8"
       style="display:inline;fill:#b3b3b3;fill-opacity:1;stroke-width:0.0440976" />
    <rect
       y="381.00061"
       x="295.27487"
       height="19.050047"
       width="9.5250082"
       id="rect1250-2-8-9-1-6-1"
       style="display:inline;fill:#b3b3b3;fill-opacity:1;stroke-width:0.0440976" />
    <rect
       transform="matrix(-1,-4.15384e-5,3.5933626e-8,-1,0,0)"
       style="display:inline;fill:#000000;fill-opacity:1;stroke-width:0.545454"
       id="rect314-5-5-4-1-1-33-9-0-0-5-4-7-7-5-30"
       width="9.5250912"
       height="161.92461"
       x="-304.79999"
       y="-380.98779" />
    <rect
       y="-266.70065"
       x="-628.65131"
       height="19.049948"
       width="180.97479"
       id="rect314-5-5-4-1-1-33-9-0-0-8-3-5"
       style="display:inline;fill:#000000;fill-opacity:1;stroke-width:0.815499"
       transform="matrix(-1,-2.5720641e-7,5.8032205e-6,-1,0,0)" />
    <rect
       style="display:inline;fill:#b3b3b3;fill-opacity:1;stroke-width:0.0881951"
       id="rect1250-2-8-9-1-7-5-0-7-9"
       width="38.099934"
       height="19.050047"
       x="352.42487"
       y="219.07553" />
    <rect
       style="display:inline;fill:#b3b3b3;fill-opacity:1;stroke-width:0.0881951"
       id="rect1250-2-8-9-1-7-5-0-7-7"
       width="38.099934"
       height="19.050047"
       x="400.04987"
       y="219.07553" />
    <rect
       y="-476.22418"
       x="-400.04996"
       height="257.17441"
       width="9.5250912"
       id="rect314-5-5-4-1-1-33-9-0-0-5-4-7-7-5-30-6"
       style="display:inline;fill:#000000;fill-opacity:1;stroke-width:0.687411"
       transform="matrix(-1,-6.5972755e-5,2.2624875e-8,-1,0,0)" />
    <rect
       style="display:inline;fill:#b3b3b3;fill-opacity:1;stroke-width:0.0440976"
       id="rect1250-2-8-9-1-6-1-9"
       width="9.5250082"
       height="19.050047"
       x="342.89987"
       y="457.20041" />
    <rect
       y="-457.17966"
       x="-352.42511"
       height="238.12492"
       width="9.5250912"
       id="rect314-5-5-4-1-1-33-9-0-0-5-4-7-7-6"
       style="display:inline;fill:#000000;fill-opacity:1;stroke-width:0.661461"
       transform="matrix(-1,-6.108602e-5,2.443481e-8,-1,0,0)" />
    <rect
       y="400.0914"
       x="-314.31189"
       height="180.97365"
       width="9.5216589"
       id="rect314-5-5-4-1-1-05-1-3-1-2-9-5-3-7"
       style="display:inline;fill:#0000ff;fill-opacity:1;stroke-width:0.576543"
       transform="matrix(1.3207368e-4,-0.99999999,1,1.7914846e-5,0,0)" />
    <rect
       y="-266.6951"
       x="-447.67496"
       height="47.625072"
       width="9.5250912"
       id="rect314-5-5-4-1-1-33-9-0-0-5-4-9"
       style="display:inline;fill:#000000;fill-opacity:1;stroke-width:0.295812"
       transform="matrix(-1,-1.2217225e-5,1.2217385e-7,-1,0,0)" />
    <rect
       y="476.25046"
       x="352.42487"
       height="19.050047"
       width="38.099934"
       id="rect1250-2-8-9-1-7-9"
       style="display:inline;fill:#b3b3b3;fill-opacity:1;stroke-width:0.0881951" />
    <rect
       y="714.37549"
       x="295.27487"
       height="19.050047"
       width="9.5250082"
       id="rect1250-2-8-9-1-6-5"
       style="display:inline;fill:#b3b3b3;fill-opacity:1;stroke-width:0.0440976" />
    <rect
       y="714.37549"
       x="342.89987"
       height="19.050047"
       width="9.5250082"
       id="rect1250-2-8-9-1-6-16"
       style="display:inline;fill:#b3b3b3;fill-opacity:1;stroke-width:0.0440976" />
    <rect
       style="display:inline;fill:#b3b3b3;fill-opacity:1;stroke-width:0.0440976"
       id="rect1250-2-8-9-1-6-1-8"
       width="9.5250082"
       height="19.050047"
       x="295.27487"
       y="495.30051" />
    <rect
       y="-495.29349"
       x="-304.80017"
       height="95.250069"
       width="9.5250912"
       id="rect314-5-5-4-1-1-33-9-0-0-5-4-7-7-5-30-4"
       style="display:inline;fill:#000000;fill-opacity:1;stroke-width:0.418346"
       transform="matrix(-1,-2.443443e-5,6.108697e-8,-1,0,0)" />
    <rect
       transform="rotate(-179.99991)"
       style="display:inline;fill:#000000;fill-opacity:1;stroke-width:0.324046"
       id="rect314-5-5-4-1-1-33-9-0-0-8-3-2-2-8-4"
       width="28.575237"
       height="19.049948"
       x="-476.25174"
       y="-238.1246" />
    <rect
       y="0.00089898775"
       x="-438.14981"
       height="28.574795"
       width="228.59999"
       id="rect314-5-5-4-1-1-33-9-0-0-8-3-2-2-8-4-4"
       style="display:inline;fill:#000000;fill-opacity:1;stroke-width:1.12252"
       transform="matrix(-1,3.054309e-7,4.8869502e-6,1,0,0)" />
    <rect
       transform="matrix(-1,-4.6425233e-5,3.2151166e-8,-1,0,0)"
       style="display:inline;fill:#000000;fill-opacity:1;stroke-width:0.576649"
       id="rect314-5-5-4-1-1-33-9-0-0-5-4-7-7-5-30-6-5"
       width="9.5250912"
       height="180.97441"
       x="-476.25006"
       y="-219.05319" />
    <rect
       y="-219.06735"
       x="-180.97495"
       height="180.97461"
       width="9.5250912"
       id="rect314-5-5-4-1-1-33-9-0-0-5-4-7-7-5-30-6-5-2"
       style="display:inline;fill:#000000;fill-opacity:1;stroke-width:0.576649"
       transform="matrix(-1,-4.6425286e-5,3.2151129e-8,-1,0,0)" />
    <rect
       transform="matrix(-1,7.3302693e-6,2.0362493e-7,1,0,0)"
       style="display:inline;fill:#000000;fill-opacity:1;stroke-width:0.229134"
       id="rect314-5-5-4-1-1-33-9-0-0-8-3-2-2-8-4-4-6"
       width="9.5250931"
       height="28.574795"
       x="-190.49998"
       y="28.576859" />
    <rect
       y="19.052444"
       x="-200.02489"
       height="28.574795"
       width="9.5250931"
       id="rect314-5-5-4-1-1-33-9-0-0-8-3-2-2-8-4-4-6-5"
       style="display:inline;fill:#000000;fill-opacity:1;stroke-width:0.229134"
       transform="matrix(-1,7.3302693e-6,2.0362493e-7,1,0,0)" />
    <rect
       y="9.5270548"
       x="-209.54991"
       height="28.574795"
       width="9.5250931"
       id="rect314-5-5-4-1-1-33-9-0-0-8-3-2-2-8-4-4-6-2"
       style="display:inline;fill:#000000;fill-opacity:1;stroke-width:0.229134"
       transform="matrix(-1,7.3302693e-6,2.0362493e-7,1,0,0)" />
    <rect
       y="28.575563"
       x="457.19989"
       height="28.574795"
       width="9.5251284"
       id="rect314-5-5-4-1-1-33-9-0-0-8-3-2-2-8-4-4-6-9"
       style="display:inline;fill:#000000;fill-opacity:1;stroke-width:0.229134" />
    <rect
       style="display:inline;fill:#000000;fill-opacity:1;stroke-width:0.229134"
       id="rect314-5-5-4-1-1-33-9-0-0-8-3-2-2-8-4-4-6-5-5"
       width="9.5251284"
       height="28.574795"
       x="447.67499"
       y="19.051147" />
    <rect
       style="display:inline;fill:#000000;fill-opacity:1;stroke-width:0.229134"
       id="rect314-5-5-4-1-1-33-9-0-0-8-3-2-2-8-4-4-6-2-6"
       width="9.5251284"
       height="28.574795"
       x="438.14996"
       y="9.5257578" />
  </g>
  <g
     style="display:inline"
     inkscape:label="Layer 4"
     id="layer4"
     inkscape:groupmode="layer" />
  <g
     style="display:inline"
     inkscape:label="Layer 2"
     id="layer2"
     inkscape:groupmode="layer" />
</svg>
